<?xml version="1.0" encoding="UTF-8" standalone="no"?>
<!-- Created with Inkscape (http://www.inkscape.org/) -->

<svg
   version="1.1"
   id="svg18"
   width="700.29333"
   height="792.58667"
   viewBox="0 0 700.29333 792.58667"
   sodipodi:docname="preview-foot-logo.svg"
   xml:space="preserve"
   inkscape:version="1.2.2 (b0a8486541, 2022-12-01)"
   xmlns:inkscape="http://www.inkscape.org/namespaces/inkscape"
   xmlns:sodipodi="http://sodipodi.sourceforge.net/DTD/sodipodi-0.dtd"
   xmlns="http://www.w3.org/2000/svg"
   xmlns:svg="http://www.w3.org/2000/svg"
   xmlns:rdf="http://www.w3.org/1999/02/22-rdf-syntax-ns#"
   xmlns:cc="http://creativecommons.org/ns#"><defs
     id="defs22" /><sodipodi:namedview
     id="namedview20"
     pagecolor="#505050"
     bordercolor="#ffffff"
     borderopacity="1"
     inkscape:showpageshadow="0"
     inkscape:pageopacity="0"
     inkscape:pagecheckerboard="1"
     inkscape:deskcolor="#505050"
     showgrid="false"
     inkscape:zoom="1.0800081"
     inkscape:cx="237.96118"
     inkscape:cy="397.6822"
     inkscape:window-width="1920"
     inkscape:window-height="1050"
     inkscape:window-x="0"
     inkscape:window-y="0"
     inkscape:window-maximized="1"
     inkscape:current-layer="layer1"><inkscape:page
       x="0"
       y="0"
       id="page24"
       width="700.29333"
       height="792.58667" /></sodipodi:namedview><g
     id="g26"
     inkscape:groupmode="layer"
     inkscape:label="Foot"
     transform="matrix(1.3333333,0,0,-1.3333333,0,792.58667)"><g
       id="g28"
       transform="scale(0.1)"><path
         d="m 3424.61,1064.98 114.17,-5.49 c 95.1,8.4 199.08,50.18 297.15,114.2 l -618.38,-42.01 c 59.85,-33.55 128.43,-55.22 207.06,-66.7"
         style="fill:#3453ac;fill-opacity:1;fill-rule:nonzero;stroke:none"
         id="path80" /><path
         d="m 3472.21,1059.32 c 21.54,-1.98 43.81,-1.84 66.57,0.17 l -114.17,5.49 c 15.49,-2.27 31.32,-4.18 47.6,-5.66"
         style="fill:#3752ac;fill-opacity:1;fill-rule:nonzero;stroke:none"
         id="path82" /><path
         d="m 5191.19,4940.45 c -12.77,7.99 -26.72,13.16 -41.35,15.82 l 102.37,-146.02 c 0.54,56.02 -20.06,104.63 -61.02,130.2"
         style="fill:#af1d23;fill-opacity:1;fill-rule:nonzero;stroke:none"
         id="path84" /><path
         d="m 4936.99,4834.43 c -18.78,-30.04 -31.58,-61.54 -38.59,-92.32 l 315.79,-65.02 c 25.08,44.16 37.61,90.78 38.02,133.16 l -102.37,146.02 c -70.86,12.85 -158.35,-34.64 -212.85,-121.84"
         style="fill:#b31d23;fill-opacity:1;fill-rule:nonzero;stroke:none"
         id="path86" /><path
         d="m 4518.02,4820.42 c -100.16,62.43 -210.94,116.58 -324.16,160.01 l -41.24,-84.77 365.4,-75.24"
         style="fill:#b31d23;fill-opacity:1;fill-rule:nonzero;stroke:none"
         id="path88" /><path
         d="m 4664.74,4798.07 c 95.71,-38.11 216.8,40.36 270.5,175.27 53.71,134.89 19.7,275.12 -76.01,313.23 -95.7,38.11 -216.81,-40.37 -270.51,-175.27 -53.7,-134.89 -19.7,-275.12 76.02,-313.23"
         style="fill:#b31d23;fill-opacity:1;fill-rule:nonzero;stroke:none"
         id="path90" /><path
         d="m 4314.46,4992.26 c 109.92,-30.01 233.38,71.24 275.65,226.19 41.76,152.94 -11.07,301.02 -118.18,333.69 l -243.19,-499.99 c 22.31,-29.36 51.32,-50.51 85.72,-59.89"
         style="fill:#b31d23;fill-opacity:1;fill-rule:nonzero;stroke:none"
         id="path92" /><path
         d="m 4910.99,3921.1 c 56.15,127.81 82.86,286.72 6.72,474.09 l -556.62,-309.6 549.9,-164.49"
         style="fill:#a974a9;fill-opacity:1;fill-rule:nonzero;stroke:none"
         id="path94" /><path
         d="m 4495.41,2986.72 c 22.45,76.64 42.78,143.03 61.27,201.01 l -326.63,-224.9 265.36,23.89"
         style="fill:#3849a5;fill-opacity:1;fill-rule:nonzero;stroke:none"
         id="path96" /><path
         d="m 4329.26,2191.29 c 10.29,62.5 20.39,125.37 30.61,187.28 l -201.3,-121.58 170.69,-65.7"
         style="fill:#3855ae;fill-opacity:1;fill-rule:nonzero;stroke:none"
         id="path98" /><path
         d="m 4158.57,2256.99 201.3,121.58 c 27.66,167.56 56.16,327.93 91.39,453.79 15.57,55.67 30.26,106.96 44.15,154.36 l -265.36,-23.89 -71.48,-705.84"
         style="fill:#3e65b9;fill-opacity:1;fill-rule:nonzero;stroke:none"
         id="path100" /><path
         d="m 4230.05,2962.83 326.63,224.9 c 74.24,232.9 118.73,330.31 150.94,410.12 l 0.05,0.05 c 23.78,58.86 135.2,168.17 203.32,323.2 l -549.9,164.49 -131.04,-1122.76"
         style="fill:#4181ca;fill-opacity:1;fill-rule:nonzero;stroke:none"
         id="path102" /><path
         d="m 4158.57,2256.99 -19.51,-773.9 c 30.98,50.54 56.05,103.26 73.33,156.75 47.8,147.91 83.31,347.62 116.87,551.45 l -170.69,65.7"
         style="fill:#385fb5;fill-opacity:1;fill-rule:nonzero;stroke:none"
         id="path104" /><path
         d="m 4953.1,4559.46 c 74.62,-46.67 188.44,0.82 254.19,106.02 2.41,3.85 4.69,7.73 6.9,11.61 l -315.79,65.02 c -17.53,-76.97 1.35,-149.34 54.7,-182.65"
         style="fill:#af744d;fill-opacity:1;fill-rule:nonzero;stroke:none"
         id="path106" /><path
         d="m 4361.09,4085.59 556.62,309.6 c -7,17.23 -14.86,34.7 -23.66,52.4 -69.48,139.84 -207.77,267.99 -376.03,372.83 l -365.4,75.24 208.47,-810.07"
         style="fill:#af744d;fill-opacity:1;fill-rule:nonzero;stroke:none"
         id="path108" /><path
         d="m 3097.63,1227.19 c 35.5,-38.93 75.29,-70.51 119.92,-95.51 l 618.38,42.01 c 22.62,14.77 44.93,30.72 66.74,47.72 l -610.75,73.63 -194.29,-67.85"
         style="fill:#3a62b7;fill-opacity:1;fill-rule:nonzero;stroke:none"
         id="path110" /><path
         d="m 4361.09,4085.59 -658.18,-327.6 527.14,-795.16 z"
         style="fill:#5ec9c7;fill-opacity:1;fill-rule:nonzero;stroke:none"
         id="path112" /><path
         d="m 3740.66,5474.61 c -18.51,-161.68 59.51,-303.4 174.19,-316.48 114.69,-13.13 222.66,107.3 241.18,268.98 9.67,84.73 -7.16,163.95 -41.88,222.07 l -355.86,-93.55 c -8.34,-25.4 -14.37,-52.57 -17.63,-81.02"
         style="fill:#c32424;fill-opacity:1;fill-rule:nonzero;stroke:none"
         id="path114" /><path
         d="m 3651.73,5332.27 c 22.94,58.86 36,126.46 36,198.34 0,2.16 -0.03,4.31 -0.05,6.46 l -208.13,-54.71 172.18,-150.09"
         style="fill:#c32424;fill-opacity:1;fill-rule:nonzero;stroke:none"
         id="path116" /><path
         d="m 4193.86,4980.43 c -72.51,27.82 -146.01,51.25 -218.36,69.62 l 177.12,-154.39 41.24,84.77"
         style="fill:#c32424;fill-opacity:1;fill-rule:nonzero;stroke:none"
         id="path118" /><path
         d="m 4471.93,5552.14 c -1.41,0.43 -2.83,0.86 -4.25,1.25 -109.93,30 -233.33,-71.25 -275.65,-226.2 -29.07,-106.46 -12.29,-210.56 36.71,-275.04 l 243.19,499.99"
         style="fill:#c32424;fill-opacity:1;fill-rule:nonzero;stroke:none"
         id="path120" /><path
         d="m 3981.79,5743.58 c -94.5,10.82 -184.44,-69.05 -223.5,-187.95 l 355.86,93.55 c -31.51,52.77 -77.78,88.15 -132.36,94.4"
         style="fill:#c11e24;fill-opacity:1;fill-rule:nonzero;stroke:none"
         id="path122" /><path
         d="m 3687.68,5537.07 c -1.1,100.33 -27.58,191.96 -70.8,262.68 l -137.33,-317.39 208.13,54.71"
         style="fill:#c11e24;fill-opacity:1;fill-rule:nonzero;stroke:none"
         id="path124" /><path
         d="m 3291.92,1295.04 610.75,-73.63 c 45.12,35.17 88.1,74.82 127.35,117.73 l -607.05,867.23 -131.05,-911.33"
         style="fill:#3d6fbf;fill-opacity:1;fill-rule:nonzero;stroke:none"
         id="path126" /><path
         d="m 3422.97,2206.37 607.05,-867.23 c 41.06,44.88 78.03,93.32 109.04,143.95 l 19.51,773.9 -735.6,-50.62"
         style="fill:#3f7bc7;fill-opacity:1;fill-rule:nonzero;stroke:none"
         id="path128" /><path
         d="m 4152.62,4895.66 -449.71,-1137.67 658.18,327.6 z"
         style="fill:#96ca5b;fill-opacity:1;fill-rule:nonzero;stroke:none"
         id="path130" /><path
         d="m 3616.88,5799.75 c -45.48,74.38 -109.47,125.61 -181.88,139.52 l 44.55,-456.91 137.33,317.39"
         style="fill:#c61e25;fill-opacity:1;fill-rule:nonzero;stroke:none"
         id="path132" /><path
         d="m 4152.62,4895.66 -970.11,23.81 -0.52,-0.58 520.92,-1160.9 449.71,1137.67"
         style="fill:#bfc628;fill-opacity:1;fill-rule:nonzero;stroke:none"
         id="path134" /><path
         d="m 3422.97,2206.37 735.6,50.62 -687.95,655.2 z"
         style="fill:#4795d7;fill-opacity:1;fill-rule:nonzero;stroke:none"
         id="path136" /><path
         d="m 3470.62,2912.19 687.95,-655.2 71.48,705.84 z"
         style="fill:#4688cf;fill-opacity:1;fill-rule:nonzero;stroke:none"
         id="path138" /><path
         d="m 3702.91,3757.99 -232.29,-845.8 759.43,50.64 z"
         style="fill:#4994d7;fill-opacity:1;fill-rule:nonzero;stroke:none"
         id="path140" /><path
         d="m 3975.5,5050.05 c -227.31,57.75 -443.28,65.77 -581.26,4.07 -84.89,-37.96 -156.99,-74.44 -211.73,-134.65 l 970.11,-23.81 -177.12,154.39"
         style="fill:#cd501f;fill-opacity:1;fill-rule:nonzero;stroke:none"
         id="path142" /><path
         d="m 3651.73,5332.27 -172.18,150.09 -180.63,-341.41 c 30.12,-14.77 62.49,-22.82 96.19,-22.82 110.61,0 206.87,86.51 256.62,214.14"
         style="fill:#cd501f;fill-opacity:1;fill-rule:nonzero;stroke:none"
         id="path144" /><path
         d="m 3090.64,4733.29 c -5.98,-25.29 -10.74,-53.39 -14.4,-83.8 l 104.89,268.46 c -40.36,-44.95 -71.14,-103.06 -90.49,-184.66"
         style="fill:#cbe319;fill-opacity:1;fill-rule:nonzero;stroke:none"
         id="path146" /><path
         d="M 3422.97,2206.37 2948.63,1969.2 c -2.67,-14.4 -4.92,-28.54 -6.63,-42.32 -8.47,-68.64 -11.96,-133.68 -11.26,-194.5 l 361.18,-437.34 131.05,911.33"
         style="fill:#4486ce;fill-opacity:1;fill-rule:nonzero;stroke:none"
         id="path148" /><path
         d="m 3702.91,3757.99 -520.55,-93.16 c 11.8,-42.82 22.09,-85.6 29.12,-132.59 21.24,-142.25 27.76,-287.65 23.89,-430.31 l 235.25,-189.74 232.29,845.8"
         style="fill:#70cfce;fill-opacity:1;fill-rule:nonzero;stroke:none"
         id="path150" /><path
         d="m 3181.99,4918.89 -0.86,-0.94 -104.89,-268.46 c -18.76,-155.63 -8.46,-372.81 17.33,-594.58 20.41,-175.35 59.28,-282.92 88.79,-390.08 l 520.55,93.16 -520.92,1160.9"
         style="fill:#90d239;fill-opacity:1;fill-rule:nonzero;stroke:none"
         id="path152" /><path
         d="m 3470.62,2912.19 -434.54,-657.56 c -37.64,-99.1 -71.09,-197.54 -87.45,-285.43 l 474.34,237.17 47.65,705.82"
         style="fill:#4999da;fill-opacity:1;fill-rule:nonzero;stroke:none"
         id="path154" /><path
         d="m 3228.29,2961.54 c -5.41,-73.83 -13.3,-146.36 -23.06,-216.74 -17.37,-125.13 -100.24,-308.75 -169.15,-490.17 l 434.54,657.56 -242.33,49.35"
         style="fill:#51b1e7;fill-opacity:1;fill-rule:nonzero;stroke:none"
         id="path156" /><path
         d="m 3435,5939.27 c -13.05,2.5 -26.36,3.83 -39.89,3.83 -161.67,0 -292.67,-184.65 -292.67,-412.49 0,-21.45 1.16,-42.52 3.41,-63.09 l 373.7,14.84 -44.55,456.91"
         style="fill:#dd2824;fill-opacity:1;fill-rule:nonzero;stroke:none"
         id="path158" /><path
         d="m 3105.85,5467.52 c 16.58,-152.31 92.28,-277.15 193.07,-326.57 l 180.63,341.41 -373.7,-14.84"
         style="fill:#df4f1e;fill-opacity:1;fill-rule:nonzero;stroke:none"
         id="path160" /><path
         d="m 3235.37,3101.93 c -1.28,-47.16 -3.68,-94.02 -7.08,-140.39 l 242.33,-49.35 -235.25,189.74"
         style="fill:#60cbec;fill-opacity:1;fill-rule:nonzero;stroke:none"
         id="path162" /><path
         d="m 2930.74,1732.38 c 1.89,-162.5 33.92,-294.78 82.25,-384.14 25.11,-46.42 53.2,-86.58 84.64,-121.05 l 194.29,67.85 -361.18,437.34"
         style="fill:#3f6ebf;fill-opacity:1;fill-rule:nonzero;stroke:none"
         id="path164" /><path
         d="m 2093.51,3748.23 c 24.29,83.52 49.89,176.77 65.17,307.96 9.56,82.24 16.98,163.84 21.6,241.91 l -314.9,-477.56 228.13,-72.31"
         style="fill:#c7e332;fill-opacity:1;fill-rule:nonzero;stroke:none"
         id="path166" /><path
         d="m 2302.96,1973.98 c -47.35,248.4 -229.21,579.52 -255.94,772.11 -10.32,74.38 -18.53,151.2 -23.95,229.38 L 1403.76,2120 l 899.2,-146.02"
         style="fill:#52b4e9;fill-opacity:1;fill-rule:nonzero;stroke:none"
         id="path168" /><path
         d="m 2239.26,1349.53 c 16.58,30.67 31.25,66.37 43.45,106.64 l -459.64,-390.58 c 191.65,26.91 323.95,113.41 416.19,283.94"
         style="fill:#3e64b8;fill-opacity:1;fill-rule:nonzero;stroke:none"
         id="path170" /><path
         d="m 2310.24,1928.14 c -1.84,14.93 -4.3,30.22 -7.28,45.84 L 1403.76,2120 1553.69,1101.91 c 78.34,-32.18 156.13,-47.73 226.35,-41.3 14.68,1.32 29,3 43.03,4.98 l 459.64,390.58 c 36.63,120.96 50.89,282.91 27.53,471.97"
         style="fill:#437ac6;fill-opacity:1;fill-rule:nonzero;stroke:none"
         id="path172" /><path
         d="m 1403.76,2120 619.31,855.47 c -2.26,32.66 -4.03,65.55 -5.25,98.61 l -709.36,-483.53 95.3,-470.55"
         style="fill:#80d3bd;fill-opacity:1;fill-rule:nonzero;stroke:none"
         id="path174" /><path
         d="m 2183.92,4549.44 c -3.01,70.79 -10.15,133.73 -22.32,185.13 -31.71,133.79 -94.2,204.46 -179.19,257.42 l -158.72,-313.74 360.23,-128.81"
         style="fill:#f27c15;fill-opacity:1;fill-rule:nonzero;stroke:none"
         id="path176" /><path
         d="m 2032.02,3467.66 c 2.58,22.01 5.47,43.98 8.74,65.86 11.46,76.61 31.61,141.97 52.75,214.71 l -228.13,72.31 166.64,-352.88"
         style="fill:#a0db87;fill-opacity:1;fill-rule:nonzero;stroke:none"
         id="path178" /><path
         d="m 1923.36,5933.79 c -21.28,6.93 -43.45,10.59 -66.23,10.59 -76.37,0 -145.89,-41.24 -198,-108.78 l 66.28,-543.85 197.95,642.04"
         style="fill:#ee2d21;fill-opacity:1;fill-rule:nonzero;stroke:none"
         id="path180" /><path
         d="m 2137.22,5411.98 c 8.17,37.95 12.58,78.2 12.58,119.92 0,195.73 -96.68,359.59 -226.44,401.89 l -197.95,-642.04 411.81,120.23"
         style="fill:#ef2f21;fill-opacity:1;fill-rule:nonzero;stroke:none"
         id="path182" /><path
         d="m 1982.41,4991.99 c -37.36,23.27 -79.05,43.12 -124.41,63.4 -29.78,13.32 -63.22,23.38 -99.6,30.41 l 65.29,-407.55 158.72,313.74"
         style="fill:#f36618;fill-opacity:1;fill-rule:nonzero;stroke:none"
         id="path184" /><path
         d="m 1748.29,5148.91 c 33.64,-19.01 70.37,-29.5 108.84,-29.5 132.07,0 243.65,123.26 280.09,292.57 l -411.81,-120.23 22.88,-142.84"
         style="fill:#f36618;fill-opacity:1;fill-rule:nonzero;stroke:none"
         id="path186" /><path
         d="m 1865.38,3820.54 314.9,477.56 c 5.32,89.97 6.87,175.21 3.64,251.34 l -360.23,128.81 41.69,-857.71"
         style="fill:#eccf0a;fill-opacity:1;fill-rule:nonzero;stroke:none"
         id="path188" /><path
         d="m 1270.46,5744.86 c -98.17,-11.24 -169.46,-116.67 -176.38,-248.2 l 414.57,-134.55 c 6.19,35.65 7.47,74.1 2.93,113.77 -18.46,161.67 -126.43,282.11 -241.12,268.98"
         style="fill:#f14f1b;fill-opacity:1;fill-rule:nonzero;stroke:none"
         id="path190" /><path
         d="m 1659.13,5835.6 c -58.16,-75.38 -94.61,-183.53 -94.61,-303.7 0,-72.49 13.28,-140.61 36.58,-199.81 l 124.31,-40.34 -66.28,543.85"
         style="fill:#f14f1b;fill-opacity:1;fill-rule:nonzero;stroke:none"
         id="path192" /><path
         d="M 948.102,3519.74 2016.12,3220.18 c 1.22,82.49 6.24,165.35 15.9,247.48 l -166.64,352.88 -917.278,-300.8"
         style="fill:#bfe144;fill-opacity:1;fill-rule:nonzero;stroke:none"
         id="path194" /><path
         d="m 1308.46,2590.55 709.36,483.53 c -1.79,48.42 -2.41,97.19 -1.7,146.1 L 948.102,3519.74 1308.46,2590.55"
         style="fill:#b0e191;fill-opacity:1;fill-rule:nonzero;stroke:none"
         id="path196" /><path
         d="m 1038.89,1644.14 c 0.32,-1 0.64,-2.03 0.96,-3.03 75.07,-232.3 296.51,-449.86 513.84,-539.2 L 1403.76,2120 1038.89,1644.14"
         style="fill:#53aac6;fill-opacity:1;fill-rule:nonzero;stroke:none"
         id="path198" /><path
         d="M 1823.69,4678.25 801.859,4861.72 c -50.41,-28.32 -98.777,-58.67 -144.16,-90.81 L 948.102,3519.74 1823.69,4678.25"
         style="fill:#f9cf08;fill-opacity:1;fill-rule:nonzero;stroke:none"
         id="path200" /><path
         d="m 641.938,4838.81 c 11.464,13.39 20.917,29.11 28.296,46.55 l -40.796,7.32 12.5,-53.87"
         style="fill:#f9cf08;fill-opacity:1;fill-rule:nonzero;stroke:none"
         id="path202" /><path
         d="M 1823.69,4678.25 948.102,3519.74 1865.38,3820.54 Z"
         style="fill:#f1ed09;fill-opacity:1;fill-rule:nonzero;stroke:none"
         id="path204" /><path
         d="m 1637.31,5259.67 c 30.08,-48.22 68,-86.46 110.98,-110.76 l -22.88,142.84 -88.1,-32.08"
         style="fill:#f79310;fill-opacity:1;fill-rule:nonzero;stroke:none"
         id="path206" /><path
         d="m 670.234,4885.36 c 3.434,8.12 6.438,16.6 8.942,25.43 l -49.738,-18.11 40.796,-7.32"
         style="fill:#f79310;fill-opacity:1;fill-rule:nonzero;stroke:none"
         id="path208" /><path
         d="m 937.777,4993.54 c 23.168,6.32 43.883,18 61.766,33.91 L 892.328,4988.4 c 15.246,-0.58 30.477,1.05 45.449,5.14"
         style="fill:#f79310;fill-opacity:1;fill-rule:nonzero;stroke:none"
         id="path210" /><path
         d="m 1758.4,5085.8 c -251.14,48.48 -643.46,-48.25 -956.541,-224.08 L 1823.69,4678.25 1758.4,5085.8"
         style="fill:#f79310;fill-opacity:1;fill-rule:nonzero;stroke:none"
         id="path212" /><path
         d="m 1060.21,5328.47 c -42.31,154.95 -165.718,256.2 -275.64,226.2 -37.832,-10.32 -69.132,-34.84 -92.187,-68.88 l -28.785,-271.2 c 37.562,-131.09 133.375,-222.5 228.73,-226.19 l 107.215,39.05 c 66.947,59.56 94.067,178.74 60.667,301.02"
         style="fill:#f68612;fill-opacity:1;fill-rule:nonzero;stroke:none"
         id="path214" /><path
         d="m 1096.22,5428.39 c 18.52,-161.67 126.49,-282.1 241.18,-268.97 86.55,9.86 152.2,93.01 171.25,202.69 l -414.57,134.55 c -1.16,-22.12 -0.52,-44.98 2.14,-68.27"
         style="fill:#f68612;fill-opacity:1;fill-rule:nonzero;stroke:none"
         id="path216" /><path
         d="m 1725.41,5291.75 -124.31,40.34 c 10.23,-25.98 22.39,-50.25 36.21,-72.42 l 88.1,32.08"
         style="fill:#f68612;fill-opacity:1;fill-rule:nonzero;stroke:none"
         id="path218" /><path
         d="m 679.176,4910.79 c 16.554,58.3 12.621,130.78 -15.653,201.8 -2.707,6.8 -5.593,13.45 -8.628,19.95 l -25.457,-239.86 49.738,18.11"
         style="fill:#f68612;fill-opacity:1;fill-rule:nonzero;stroke:none"
         id="path220" /><path
         d="m 948.102,3519.74 -92.325,-863.67 452.683,-65.52 z"
         style="fill:#b1dd3a;fill-opacity:1;fill-rule:nonzero;stroke:none"
         id="path222" /><path
         d="m 947.359,2048.75 c 26.504,-150.57 55.531,-292.27 91.531,-404.61 L 1403.76,2120 947.359,2048.75"
         style="fill:#71cb7e;fill-opacity:1;fill-rule:nonzero;stroke:none"
         id="path224" /><path
         d="M 855.777,2656.07 1403.76,2120 l -95.3,470.55 z"
         style="fill:#7ece65;fill-opacity:1;fill-rule:nonzero;stroke:none"
         id="path226" /><path
         d="m 855.777,2656.07 -7.132,-29.23 c 35.003,-178.4 64.796,-385.45 98.714,-578.09 L 1403.76,2120 855.777,2656.07"
         style="fill:#7dcd55;fill-opacity:1;fill-rule:nonzero;stroke:none"
         id="path228" /><path
         d="M 657.699,4770.91 C 524.43,4676.54 416.82,4566.86 358.188,4448.87 160.473,4050.91 430.84,3773.42 521.41,3639.66 L 948.102,3519.74 657.699,4770.91"
         style="fill:#facc09;fill-opacity:1;fill-rule:nonzero;stroke:none"
         id="path230" /><path
         d="m 641.938,4838.81 -12.5,53.87 -62.95,-99.74 c 7.117,1.56 14.137,3.67 21.028,6.41 21.297,8.48 39.519,22.05 54.422,39.46"
         style="fill:#facc09;fill-opacity:1;fill-rule:nonzero;stroke:none"
         id="path232" /><path
         d="m 838.27,2678.03 c 1.492,-7.11 2.968,-14.28 4.441,-21.51 l 13.066,-0.45 -17.507,21.96"
         style="fill:#eac30c;fill-opacity:1;fill-rule:nonzero;stroke:none"
         id="path234" /><path
         d="M 948.102,3519.74 521.41,3639.66 c 10.442,-15.41 18.496,-28.92 23.168,-40.49 l 0.055,-0.04 c 45.187,-111.98 114.531,-258.51 256.351,-765.48 13.286,-47.46 25.602,-99.82 37.286,-155.62 l 17.507,-21.96 92.325,863.67"
         style="fill:#efe406;fill-opacity:1;fill-rule:nonzero;stroke:none"
         id="path236" /><path
         d="m 842.711,2656.52 c 1.992,-9.8 3.969,-19.68 5.934,-29.68 l 7.132,29.23 -13.066,0.45"
         style="fill:#afdb29;fill-opacity:1;fill-rule:nonzero;stroke:none"
         id="path238" /><path
         d="m 414.586,4838.06 c 47.469,-38.42 102.059,-56 151.902,-45.12 l 62.95,99.74 -214.852,-54.62"
         style="fill:#f9aa0c;fill-opacity:1;fill-rule:nonzero;stroke:none"
         id="path240" /><path
         d="m 44.9453,4666.76 c 65.7577,-105.2 179.5747,-152.69 254.2027,-106.02 70,43.75 80.7,154.65 27.614,255 L 12.707,4735.9 c 7.4453,-23.25 18.1524,-46.61 32.2383,-69.14"
         style="fill:#f9aa0c;fill-opacity:1;fill-rule:nonzero;stroke:none"
         id="path242" /><path
         d="m 654.895,5132.54 c -57.223,122.55 -170.993,191.5 -261.883,155.32 -54.684,-21.78 -89.172,-76.92 -98.727,-145.32 l 335.153,-249.86 25.457,239.86"
         style="fill:#f57515;fill-opacity:1;fill-rule:nonzero;stroke:none"
         id="path244" /><path
         d="m 662.145,5219.74 c 0.468,-1.74 0.96,-3.45 1.453,-5.15 l 28.785,271.2 c -43.977,-64.91 -57.996,-164.41 -30.238,-266.05"
         style="fill:#f57515;fill-opacity:1;fill-rule:nonzero;stroke:none"
         id="path246" /><path
         d="m 294.285,5142.54 c -7.168,-51.33 -0.305,-110.1 22.719,-167.93 22.766,-57.19 57.652,-104.22 97.582,-136.55 l 214.852,54.62 -335.153,249.86"
         style="fill:#f68712;fill-opacity:1;fill-rule:nonzero;stroke:none"
         id="path248" /><path
         d="M 61.0547,4941.73 C 2.375,4905.1 -14.6055,4821.21 12.707,4735.9 l 314.055,79.84 c -3.547,6.72 -7.383,13.38 -11.508,19.98 -65.75,105.19 -179.57,152.69 -254.1993,106.01"
         style="fill:#f68712;fill-opacity:1;fill-rule:nonzero;stroke:none"
         id="path250" /></g></g><g
     inkscape:groupmode="layer"
     id="layer1"
     inkscape:label="LookingGlass"><path
       id="path3058-6"
       style="color:#000000;text-indent:0;text-transform:none;stroke-width:1.87004"
       d="m 409.2722,308.31884 c -49.41013,0 -98.82961,18.75087 -136.39119,56.31244 -75.12317,75.12129 -75.20919,197.73778 -0.086,272.85719 65.85711,65.85525 168.13695,73.97495 242.99269,24.36659 l 113.91893,113.91522 c 15.03248,15.03211 39.21469,15.03211 54.24605,0 15.03267,-15.03211 15.03267,-39.21282 0,-54.24605 L 570.11975,607.60901 c 49.55039,-74.84451 41.37832,-177.1524 -24.45448,-242.99269 -37.56158,-37.5597 -86.98293,-56.31244 -136.3912,-56.31244 z m -0.086,50.80144 c 36.2245,0.0168 72.44152,13.88971 100.22654,41.67379 55.57004,55.56817 55.65606,144.96719 0.086,200.54284 -55.57004,55.56816 -144.97093,55.56816 -200.54283,0 -55.57004,-55.56817 -55.57004,-144.96532 0,-200.54284 27.78501,-27.78502 64.00203,-41.69249 100.22653,-41.67379 z M 306.97741,544.6729 a 5.5113749,5.5111879 0 0 0 -4.73587,7.92148 c 19.19593,40.1871 60.26383,67.93472 107.7179,67.93472 10.29718,0 20.27495,-1.33979 29.79344,-3.78851 A 5.5113749,5.5111879 0 0 0 439.58065,606.0638 C 391.90217,595.41431 348.12272,574.49383 310.59481,545.79062 a 5.5113749,5.5111879 0 0 0 -3.61647,-1.11935 z" /></g><metadata
     id="metadata200"><rdf:RDF><cc:Work
         rdf:about=""><cc:license
           rdf:resource="http://creativecommons.org/publicdomain/zero/1.0/" /></cc:Work><cc:License
         rdf:about="http://creativecommons.org/publicdomain/zero/1.0/"><cc:permits
           rdf:resource="http://creativecommons.org/ns#Reproduction" /><cc:permits
           rdf:resource="http://creativecommons.org/ns#Distribution" /><cc:permits
           rdf:resource="http://creativecommons.org/ns#DerivativeWorks" /></cc:License></rdf:RDF></metadata></svg>
